<svg height="320" viewBox="0 0 900 320" width="900" xmlns="http://www.w3.org/2000/svg"><g fill="none" fill-rule="evenodd"><path d="m0 0h900v320h-900z" fill="#00a1d5"/><g transform="translate(375 109)"><path d="m120.9375 37.2532895c-4.25-21.2787817-23.1874981-37.2532895-45.9375-37.2532895-18.0625019 0-33.7500006 10.115131-41.5625006 24.9177632-18.8125 1.9736823-33.4374994 17.701479-33.4374994 36.7598684 0 20.4152899 16.8125006 37.0065789 37.5 37.0065789h81.25c17.25 0 31.25-13.8157894 31.25-30.8388158 0-16.2828966-12.812494-29.481906-29.0625-30.5921052z" fill="#fff"/><path d="m41.052632 59.2105263c0-6.75 5.4868417-12.2368437 12.2368417-12.2368437h15.7894737v-7.4999984h-15.7894737c-10.8947376 0-19.7368421 8.8421045-19.7368421 19.7368421s8.8421045 19.7368421 19.7368421 19.7368421h15.7894737v-7.4999984h-15.7894737c-6.75 0-12.2368417-5.4868437-12.2368417-12.2368437zm14.2105259 3.9473684h31.5789474v-7.8947368h-31.5789474zm35.5263158-23.6842105h-15.7894737v7.4999984h15.7894737c6.749996 0 12.2368423 5.4868437 12.2368423 12.2368437s-5.4868384 12.2368437-12.2368423 12.2368437h-15.7894737v7.4999984h15.7894737c10.8947373 0 19.7368423-8.8421045 19.7368423-19.7368421s-8.842105-19.7368421-19.7368423-19.7368421z" fill="#00a1d5"/></g></g></svg>