<svg height="100" viewBox="0 0 100 100" width="100" xmlns="http://www.w3.org/2000/svg"><g fill="none" fill-rule="evenodd"><circle cx="50" cy="50" fill="#00a1d5" r="50"/><g transform="translate(18 26)"><path d="m51.6 15.8947368c-1.8133333-9.0789468-9.8933325-15.8947368-19.6-15.8947368-7.7066675 0-14.4000003 4.31578921-17.7333336 10.6315789-8.02666667.8421045-14.2666664 7.5526311-14.2666664 15.6842106 0 8.7105237 7.1733336 15.7894737 16 15.7894737h34.6666667c7.36 0 13.3333333-5.8947369 13.3333333-13.1578948 0-6.9473684-5.466664-12.5789466-12.4-13.0526316z" fill="#fff"/><path d="m17.5157896 25.2631579c0-2.88 2.3410525-5.2210533 5.2210525-5.2210533h6.7368421v-3.1999993h-6.7368421c-4.6484214 0-8.4210526 3.7726312-8.4210526 8.4210526s3.7726312 8.4210526 8.4210526 8.4210526h6.7368421v-3.1999993h-6.7368421c-2.88 0-5.2210525-2.3410533-5.2210525-5.2210533zm6.0631578 1.6842105h13.4736842v-3.368421h-13.4736842zm15.1578947-10.1052631h-6.7368421v3.1999993h6.7368421c2.8799983 0 5.2210526 2.3410533 5.2210526 5.2210533s-2.3410509 5.2210533-5.2210526 5.2210533h-6.7368421v3.1999993h6.7368421c4.6484211 0 8.4210526-3.7726312 8.4210526-8.4210526s-3.7726315-8.4210526-8.4210526-8.4210526z" fill="#00a1d5"/></g></g></svg>