<svg height="100" viewBox="0 0 100 100" width="100" xmlns="http://www.w3.org/2000/svg"><g fill="none" fill-rule="evenodd"><circle cx="50" cy="50" fill="#00a1d5" r="50"/><path d="m73.275 39.875c-2.1533333-10.7812494-11.7483324-18.875-23.275-18.875-9.1516676 0-17.1000003 5.1249997-21.0583337 12.625-9.5316666.9999991-16.9416663 8.9687494-16.9416663 18.625 0 10.3437469 8.5183336 18.75 19 18.75h41.1666667c8.74 0 15.8333333-7 15.8333333-15.625 0-8.2500009-6.4916635-14.9374991-14.725-15.5z" fill="#fff"/><path d="m32.8000002 51c0-3.42 2.7799998-6.2000008 6.1999998-6.2000008h8v-3.7999992h-8c-5.5200004 0-10 4.4799996-10 10s4.4799996 10 10 10h8v-3.7999992h-8c-3.42 0-6.1999998-2.7800008-6.1999998-6.2000008zm7.1999998 2h16v-4h-16zm18-12h-8v3.7999992h8c3.419998 0 6.2 2.7800008 6.2 6.2000008s-2.779998 6.2000008-6.2 6.2000008h-8v3.7999992h8c5.52 0 10-4.4799996 10-10s-4.48-10-10-10z" fill="#00a1d5"/></g></svg>